<svg width="96" height="104" viewBox="0 0 96 104" fill="none" xmlns="http://www.w3.org/2000/svg">
<g filter="url(#filter0_d_1002_98)">
<path fill-rule="evenodd" clip-rule="evenodd" d="M47.9596 17C62.582 17 74.4359 28.8645 74.4359 43.5C74.4359 58.1354 62.582 70 47.9596 70C33.3372 70 21.4834 58.1354 21.4834 43.5C21.4834 28.8645 33.3372 17 47.9596 17Z" fill="#FF4361"/>
</g>
<path fill-rule="evenodd" clip-rule="evenodd" d="M42.4652 1H52.4564C69.0101 1 82.4295 14.4312 82.4295 31V41C82.4295 57.5683 69.0101 70.9999 52.4564 70.9999H42.4652C25.9116 70.9999 12.4922 57.5683 12.4922 41V31C12.4922 14.4312 25.9116 1 42.4652 1Z" fill="#FF4361"/>
<path fill-rule="evenodd" clip-rule="evenodd" d="M42.4652 1H52.4564C69.0101 1 82.4295 14.4312 82.4295 31V41C82.4295 57.5683 69.0101 70.9999 52.4564 70.9999H42.4652C25.9116 70.9999 12.4922 57.5683 12.4922 41V31C12.4922 14.4312 25.9116 1 42.4652 1Z" fill="url(#paint0_linear_1002_98)"/>
<path fill-rule="evenodd" clip-rule="evenodd" d="M64.9885 31.8587C64.9942 31.9609 64.9868 32.0646 64.9613 32.1689L62.681 41.335C62.566 41.7963 62.1542 42.1216 61.6808 42.1243L47.9995 42.1936C47.9978 42.1936 47.9961 42.1936 47.9943 42.1936H34.313C33.837 42.1936 33.4223 41.8673 33.3074 41.4033L31.0272 32.2022C31.0008 32.0958 30.9933 31.9888 31 31.884C30.1178 31.6049 29.4763 30.7754 29.4763 29.7979C29.4763 28.591 30.4526 27.6098 31.6528 27.6098C32.853 27.6098 33.8293 28.591 33.8293 29.7979C33.8293 30.477 33.5196 31.0845 33.0347 31.4866L35.8895 34.377C36.6111 35.1076 37.6122 35.527 38.6365 35.527C39.8477 35.527 41.0024 34.9485 41.7296 33.9802L46.4213 27.7323C46.0272 27.3367 45.7831 26.7899 45.7831 26.1867C45.7831 24.9802 46.7594 23.9985 47.9596 23.9985C49.1598 23.9985 50.1362 24.9802 50.1362 26.1867C50.1362 26.7716 49.9051 27.3022 49.5316 27.6952C49.5328 27.6969 49.5344 27.6985 49.5356 27.7001L54.1932 33.9651C54.9202 34.9426 56.079 35.527 57.2936 35.527C58.3274 35.527 59.2995 35.1221 60.0303 34.3877L62.9031 31.5001C62.408 31.0985 62.0899 30.4856 62.0899 29.7979C62.0899 28.591 63.0663 27.6098 64.2665 27.6098C65.4667 27.6098 66.4431 28.591 66.4431 29.7979C66.4431 30.749 65.8343 31.5587 64.9885 31.8587ZM62.4585 45.4571C62.4585 44.8823 61.9944 44.4157 61.4221 44.4157H34.6125C34.0401 44.4157 33.576 44.8823 33.576 45.4571V47.9571C33.576 48.5329 34.0401 48.999 34.6125 48.999H61.4221C61.9944 48.999 62.4585 48.5329 62.4585 47.9571V45.4571Z" fill="white"/>
<defs>
<filter id="filter0_d_1002_98" x="0.483398" y="9" width="94.9524" height="95" filterUnits="userSpaceOnUse" color-interpolation-filters="sRGB">
<feFlood flood-opacity="0" result="BackgroundImageFix"/>
<feColorMatrix in="SourceAlpha" type="matrix" values="0 0 0 0 0 0 0 0 0 0 0 0 0 0 0 0 0 0 127 0" result="hardAlpha"/>
<feOffset dy="13"/>
<feGaussianBlur stdDeviation="10.5"/>
<feColorMatrix type="matrix" values="0 0 0 0 0.992157 0 0 0 0 0.345098 0 0 0 0 0.447059 0 0 0 0.3 0"/>
<feBlend mode="normal" in2="BackgroundImageFix" result="effect1_dropShadow_1002_98"/>
<feBlend mode="normal" in="SourceGraphic" in2="effect1_dropShadow_1002_98" result="shape"/>
</filter>
<linearGradient id="paint0_linear_1002_98" x1="52.8693" y1="113.413" x2="124.878" y2="30.6508" gradientUnits="userSpaceOnUse">
<stop stop-color="#007BEA"/>
<stop offset="1" stop-color="#00EF91"/>
</linearGradient>
</defs>
</svg>
