<svg width="96" height="104" viewBox="0 0 96 104" fill="none" xmlns="http://www.w3.org/2000/svg">
<g filter="url(#filter0_d_1002_91)">
<path fill-rule="evenodd" clip-rule="evenodd" d="M48.4663 17C63.0886 17 74.9424 28.8645 74.9424 43.5C74.9424 58.1354 63.0886 70 48.4663 70C33.8438 70 21.99 58.1354 21.99 43.5C21.99 28.8645 33.8438 17 48.4663 17Z" fill="#FF4361"/>
<path fill-rule="evenodd" clip-rule="evenodd" d="M48.4663 17C63.0886 17 74.9424 28.8645 74.9424 43.5C74.9424 58.1354 63.0886 70 48.4663 70C33.8438 70 21.99 58.1354 21.99 43.5C21.99 28.8645 33.8438 17 48.4663 17Z" fill="url(#paint0_linear_1002_91)"/>
</g>
<path fill-rule="evenodd" clip-rule="evenodd" d="M42.9722 1H52.9631C69.5168 1 82.9362 14.4312 82.9362 31V41C82.9362 57.5683 69.5168 70.9999 52.9631 70.9999H42.9722C26.4185 70.9999 12.999 57.5683 12.999 41V31C12.999 14.4312 26.4185 1 42.9722 1Z" fill="#FF4361"/>
<path fill-rule="evenodd" clip-rule="evenodd" d="M42.9722 1H52.9631C69.5168 1 82.9362 14.4312 82.9362 31V41C82.9362 57.5683 69.5168 70.9999 52.9631 70.9999H42.9722C26.4185 70.9999 12.999 57.5683 12.999 41V31C12.999 14.4312 26.4185 1 42.9722 1Z" fill="url(#paint1_linear_1002_91)"/>
<path fill-rule="evenodd" clip-rule="evenodd" d="M56.9081 31.0028C56.8165 30.7974 56.6194 30.6657 56.4022 30.6657H49.7862L56.3157 19.8942C56.4245 19.7146 56.4312 19.4872 56.333 19.3017C56.2348 19.1146 56.0471 18.999 55.8438 18.999H46.9108C46.6993 18.999 46.506 19.1238 46.4111 19.3216L38.0364 36.8216C37.9499 37.0023 37.9594 37.2168 38.0609 37.3888C38.1631 37.5609 38.3423 37.6652 38.5361 37.6652H44.2773L38.0213 53.1893C37.9147 53.4549 38.0096 53.7625 38.2446 53.9135C38.335 53.9705 38.4355 53.999 38.5355 53.999C38.6957 53.999 38.8537 53.927 38.9632 53.792L56.8293 31.6254C56.9695 31.4517 56.9996 31.2087 56.9081 31.0028Z" fill="white"/>
<defs>
<filter id="filter0_d_1002_91" x="0.98999" y="9" width="94.9524" height="95" filterUnits="userSpaceOnUse" color-interpolation-filters="sRGB">
<feFlood flood-opacity="0" result="BackgroundImageFix"/>
<feColorMatrix in="SourceAlpha" type="matrix" values="0 0 0 0 0 0 0 0 0 0 0 0 0 0 0 0 0 0 127 0" result="hardAlpha"/>
<feOffset dy="13"/>
<feGaussianBlur stdDeviation="10.5"/>
<feColorMatrix type="matrix" values="0 0 0 0 0.898039 0 0 0 0 0.117647 0 0 0 0 0.435294 0 0 0 0.3 0"/>
<feBlend mode="normal" in2="BackgroundImageFix" result="effect1_dropShadow_1002_91"/>
<feBlend mode="normal" in="SourceGraphic" in2="effect1_dropShadow_1002_91" result="shape"/>
</filter>
<linearGradient id="paint0_linear_1002_91" x1="52.5977" y1="102.635" x2="107.605" y2="39.4139" gradientUnits="userSpaceOnUse">
<stop stop-color="#F80759"/>
<stop offset="1" stop-color="#BC4E9C"/>
</linearGradient>
<linearGradient id="paint1_linear_1002_91" x1="53.3761" y1="113.413" x2="125.385" y2="30.6508" gradientUnits="userSpaceOnUse">
<stop stop-color="#00EF91"/>
<stop offset="1" stop-color="#BC4E9C"/>
</linearGradient>
</defs>
</svg>
