<svg width="1584" height="362" viewBox="0 0 1584 362" fill="none" xmlns="http://www.w3.org/2000/svg">
<path d="M211.4 264.199L117.1 180.899L128.8 170.599L211.4 97.6994C211.6 97.4994 211.8 97.2994 212 97.1994L215.9 93.7994C226.8 84.1994 226.8 67.1994 216 57.5994L201.3 44.4994L175.8 21.8994L169.8 27.1994L40.7004 141.199C16.8004 162.299 16.8004 199.599 40.7004 220.699L176 340.199L211.7 308.199C224.7 296.499 224.6 275.899 211.4 264.199Z" fill="url(#paint0_linear_1020_64)"/>
<path opacity="0.8" d="M215.8 93.6998L117.1 180.9L97.9002 163.9C75.8002 144.4 75.8002 109.9 97.9002 90.3998L175.6 21.7998L215.8 57.4998C226.7 67.1998 226.6 84.0998 215.8 93.6998Z" fill="url(#paint1_linear_1020_64)"/>
<path d="M403.501 141.3L268.201 21.7998L232.501 53.7998C219.401 65.5998 219.401 86.1998 232.601 97.7998L326.901 181.1L315.201 191.4L232.601 264.3C232.401 264.5 232.201 264.7 232.001 264.8L228.101 268.2C217.201 277.8 217.201 294.8 228.001 304.4L242.501 317.3L268.201 340.2L273.701 335.3L403.301 220.8C427.401 199.7 427.401 162.5 403.501 141.3Z" fill="url(#paint2_linear_1020_64)"/>
<path opacity="0.8" d="M228.2 268.3L326.9 181.1L346.1 198.1C368.2 217.6 368.2 252.1 346.1 271.6L268.4 340.2L228.2 304.5C217.3 294.8 217.4 277.9 228.2 268.3Z" fill="url(#paint3_linear_1020_64)"/>
<path d="M278.701 166.4H227.201L209.001 184.7H265.001L222.501 221.1L175.301 180.3L222.901 140.9L234.801 151.3H266.301L229.601 119.6C227.701 117.7 225.101 116.6 222.301 116.6C219.601 116.6 217.001 117.7 215.101 119.5L146.601 179.5L145.801 180.2L216.101 242.5C218.101 244.5 220.701 245.5 223.401 245.5C226.001 245.5 228.501 244.6 230.501 242.6L298.301 183.1L278.701 166.4Z" fill="#0B62AA"/>
<path d="M1279.3 107.8H1179.3L1163.3 142.6H1227.7L1175 254.2H1212.4L1264.7 142.6L1280.9 107.8H1279.3Z" fill="white"/>
<path d="M542.1 250.4C541 250 539.7 249.7 538.6 249.1C537.5 248.7 536.4 248.2 535.3 247.8L532.9 246.5L528.3 244.1C527.6 243.6 526.7 243.2 525.9 242.6C524.4 241.7 523 240.6 521.7 239.7C518.8 237.5 516.2 235.1 513.6 232.7C500.4 219.3 492.2 201 492.2 180.9C492.2 160.6 500.4 142.3 513.6 129.1C516.2 126.5 518.7 124.3 521.7 122.1C523 121 524.4 120.1 525.9 119.2C529 117.2 532.1 115.5 535.2 114.1C536.3 113.6 537.4 113.2 538.5 112.6L542 111.5C549.3 108.9 557.2 107.7 565.4 107.7C573.6 107.7 581.5 109 588.8 111.5L592.3 112.6C593.4 113.2 594.5 113.5 595.6 114.1C598.9 115.6 602 117.2 604.9 119.2C606.4 120.1 607.8 121 609.3 122.1C612 124.3 614.8 126.5 617.2 129.1L592.7 153.6C590.9 152 589 150.3 587 149H586.8C586.4 148.6 585.9 148.3 585.3 147.9L584.2 147.4L582.7 146.5C581.6 146 580.7 145.6 579.6 145.2L578.1 144.7C577.7 144.5 577.4 144.3 577 144.3C576.6 144.1 576.5 144.1 576.3 143.9C575.9 143.9 575.4 143.7 575 143.5C571.9 142.8 568.6 142.4 565.3 142.4C562 142.4 558.7 142.8 555.8 143.5C555.3 143.7 554.9 143.9 554.3 143.9L553.8 144.3C553.4 144.3 552.9 144.5 552.5 144.7L551 145.2C549.9 145.6 549 145.9 548.1 146.5L546.8 147.1L546.3 147.6L545.2 148.2C544.8 148.4 544.3 148.7 543.9 149.1L542.3 150.2C542.3 150.2 542.1 150.2 542.1 150.4H541.9V150.6C541.2 151 540.6 151.5 540.1 151.9V152.1C532 159.1 526.9 169.5 526.9 181C526.9 192.5 532 202.8 540.1 209.9C540.6 210.3 541.2 210.8 541.9 211.4L542.3 211.8L543.9 212.9C545.2 213.8 546.6 214.5 548.1 215.3C549 215.8 549.9 216.4 551 216.8C552.5 217.4 554.1 217.9 555.8 218.3C558.7 219 562 219.6 565.3 219.6C568.6 219.6 571.9 219.1 575 218.3C576.5 217.9 578.1 217.4 579.6 216.8C580.7 216.4 581.6 215.9 582.7 215.3C584.2 214.6 585.4 213.8 586.7 212.9H586.9L589.8 210.7L592.5 208.1V181.2H614.5C621.6 181.2 627.3 186.9 627.3 193.8V207.7C627.3 217 623.8 226 617.2 232.6L617 232.8C614.6 235.2 611.9 237.6 609.1 239.8L604.7 242.7L602.5 244C601 244.9 599.4 245.8 597.7 246.6C597 247.2 596.1 247.5 595.3 247.9L592.4 249V249.2H592C590.9 249.7 589.8 250.1 588.5 250.5C581.2 253.1 573.3 254.3 565.1 254.3C557.2 254.2 549.4 252.9 542.1 250.4Z" fill="white"/>
<path d="M639.8 107.8H714.3C721.3 107.8 727.1 113.5 727.1 120.6V142.6H674.6V163.6H727.1V198.4H674.6V219.4H727.1V254.2H639.8V107.8Z" fill="white"/>
<path d="M885.8 181C885.8 221.5 853 254.2 812.6 254.2C772.1 254.2 739.4 221.4 739.4 181C739.4 140.6 772.2 107.8 812.6 107.8C853.1 107.8 885.8 140.5 885.8 181ZM850.9 181C850.9 160 833.7 142.7 812.6 142.7C791.4 142.7 774.3 159.9 774.3 181C774.3 202.2 791.3 219.3 812.6 219.3C833.6 219.3 850.9 202.2 850.9 181Z" fill="white"/>
<path d="M898.1 107.8H929.4C930.7 107.8 932 108.3 932.9 109.4L972.4 155.3L1011.9 109.4C1012.8 108.3 1014.1 107.8 1015.6 107.8H1046.7V254.2H1011.9V162.7L995.4 182.1L982 197.5C976.9 203.4 967.7 203.4 962.6 197.5L932.8 162.7V254.2H898V107.8H898.1Z" fill="white"/>
<path d="M1165.2 107.8L1148.9 142.6H1102V163.6H1154.5V198.4H1102V219.4H1154.5V254.2H1067.2V107.8H1165.2Z" fill="white"/>
<path d="M1259.5 192.499C1259.5 185.499 1265.4 179.699 1272.3 179.699H1314C1324.6 179.699 1333 171.099 1332.5 160.499C1332.1 150.399 1323.5 142.699 1313.6 142.699H1278.5L1294.7 107.899H1313.5C1342.8 107.899 1367.7 131.699 1367.5 160.999C1367.5 182.199 1355.1 200.399 1336.9 208.799L1382.3 254.199H1334L1294.3 214.499V254.199H1259.5V192.499Z" fill="white"/>
<path d="M1390 107.8H1412.1C1419.1 107.8 1424.9 113.5 1424.9 120.6V254.2H1389.9V107.8H1390Z" fill="white"/>
<path d="M1437.3 184.1C1437.3 142.2 1469.1 107.8 1511.1 107.8C1531.6 107.8 1549.4 115.5 1562.2 129.4L1545.5 146.1C1541.7 149.9 1535.4 151.2 1530.3 147.4C1523.9 144.8 1517.5 142.3 1509.8 142.3C1489.5 142.3 1473 158.8 1473 179.3C1473 200.4 1488.2 220.1 1511.1 220.1C1517.5 220.1 1525.2 217.4 1530.3 214.8C1535.4 211 1541.6 212.2 1545.5 216.1L1562.2 232.8C1549.4 246.9 1530.3 254.4 1508.7 254.4C1470.2 254.2 1437.3 222.4 1437.3 184.1Z" fill="white"/>
<defs>
<linearGradient id="paint0_linear_1020_64" x1="50.2047" y1="180.994" x2="394.28" y2="180.994" gradientUnits="userSpaceOnUse">
<stop offset="0.042328" stop-color="#00EF91"/>
<stop offset="0.5212" stop-color="#70C5FB"/>
<stop offset="0.9524" stop-color="#007BEA"/>
</linearGradient>
<linearGradient id="paint1_linear_1020_64" x1="202.876" y1="47.7325" x2="96.1858" y2="150.472" gradientUnits="userSpaceOnUse">
<stop offset="0.042328" stop-color="#001E49" stop-opacity="0"/>
<stop offset="0.9312" stop-color="#001E49" stop-opacity="0.6"/>
</linearGradient>
<linearGradient id="paint2_linear_1020_64" x1="50.2049" y1="181.006" x2="394.28" y2="181.006" gradientUnits="userSpaceOnUse">
<stop offset="0.042328" stop-color="#00EF91"/>
<stop offset="0.5212" stop-color="#70C5FB"/>
<stop offset="0.9524" stop-color="#007BEA"/>
</linearGradient>
<linearGradient id="paint3_linear_1020_64" x1="242.467" y1="311.368" x2="351.133" y2="210.605" gradientUnits="userSpaceOnUse">
<stop offset="0.042328" stop-color="#001E49" stop-opacity="0"/>
<stop offset="0.9312" stop-color="#001E49" stop-opacity="0.6"/>
</linearGradient>
</defs>
</svg>
