<svg width="1584" height="363" viewBox="0 0 1584 363" fill="none" xmlns="http://www.w3.org/2000/svg">
<path d="M1279.3 108.399H1179.3L1163.3 143.199H1227.7L1175 254.799H1212.4L1264.7 143.199L1280.9 108.399H1279.3Z" fill="#007BEA"/>
<path d="M542.1 251C541 250.6 539.7 250.3 538.6 249.7C537.5 249.3 536.4 248.8 535.3 248.4L532.9 247.1L528.3 244.7C527.6 244.2 526.7 243.8 525.9 243.2C524.4 242.3 523 241.2 521.7 240.3C518.8 238.1 516.2 235.7 513.6 233.3C500.4 219.9 492.2 201.6 492.2 181.5C492.2 161.2 500.4 142.9 513.6 129.7C516.2 127.1 518.7 124.9 521.7 122.7C523 121.6 524.4 120.7 525.9 119.8C529 117.8 532.1 116.1 535.2 114.7C536.3 114.2 537.4 113.8 538.5 113.2L542 112.1C549.3 109.5 557.2 108.3 565.4 108.3C573.6 108.3 581.5 109.6 588.8 112.1L592.3 113.2C593.4 113.8 594.5 114.1 595.6 114.7C598.9 116.2 602 117.8 604.9 119.8C606.4 120.7 607.8 121.6 609.3 122.7C612 124.9 614.8 127.1 617.2 129.7L592.7 154.2C590.9 152.6 589 150.9 587 149.6H586.8C586.4 149.2 585.9 148.9 585.3 148.5L584.2 148L582.7 147.1C581.6 146.6 580.7 146.2 579.6 145.8L578.1 145.3C577.7 145.1 577.4 144.9 577 144.9C576.6 144.7 576.5 144.7 576.3 144.5C575.9 144.5 575.4 144.3 575 144.1C571.9 143.4 568.6 143 565.3 143C562 143 558.7 143.4 555.8 144.1C555.3 144.3 554.9 144.5 554.3 144.5L553.8 144.9C553.4 144.9 552.9 145.1 552.5 145.3L551 145.8C549.9 146.2 549 146.5 548.1 147.1L546.8 147.7L546.3 148.2L545.2 148.8C544.8 149 544.3 149.3 543.9 149.7L542.3 150.8C542.3 150.8 542.1 150.8 542.1 151H541.9V151.2C541.2 151.6 540.6 152.1 540.1 152.5V152.7C532 159.7 526.9 170.1 526.9 181.6C526.9 193.1 532 203.4 540.1 210.5C540.6 210.9 541.2 211.4 541.9 212L542.3 212.4L543.9 213.5C545.2 214.4 546.6 215.1 548.1 215.9C549 216.4 549.9 217 551 217.4C552.5 218 554.1 218.5 555.8 218.9C558.7 219.6 562 220.2 565.3 220.2C568.6 220.2 571.9 219.7 575 218.9C576.5 218.5 578.1 218 579.6 217.4C580.7 217 581.6 216.5 582.7 215.9C584.2 215.2 585.4 214.4 586.7 213.5H586.9L589.8 211.3L592.5 208.7V181.8H614.5C621.6 181.8 627.3 187.5 627.3 194.4V208.3C627.3 217.6 623.8 226.6 617.2 233.2L617 233.4C614.6 235.8 611.9 238.2 609.1 240.4L604.7 243.3L602.5 244.6C601 245.5 599.4 246.4 597.7 247.2C597 247.8 596.1 248.1 595.3 248.5L592.4 249.6V249.8H592C590.9 250.3 589.8 250.7 588.5 251.1C581.2 253.7 573.3 254.9 565.1 254.9C557.2 254.8 549.4 253.5 542.1 251Z" fill="#007BEA"/>
<path d="M639.8 108.399H714.3C721.3 108.399 727.1 114.099 727.1 121.199V143.199H674.6V164.199H727.1V198.999H674.6V219.999H727.1V254.799H639.8V108.399Z" fill="#007BEA"/>
<path d="M885.8 181.599C885.8 222.099 853 254.799 812.6 254.799C772.1 254.799 739.4 221.999 739.4 181.599C739.4 141.199 772.2 108.399 812.6 108.399C853.1 108.399 885.8 141.099 885.8 181.599ZM850.9 181.599C850.9 160.599 833.7 143.299 812.6 143.299C791.4 143.299 774.3 160.499 774.3 181.599C774.3 202.799 791.3 219.899 812.6 219.899C833.6 219.899 850.9 202.799 850.9 181.599Z" fill="#007BEA"/>
<path d="M898.1 108.399H929.4C930.7 108.399 932 108.899 932.9 109.999L972.4 155.899L1011.9 109.999C1012.8 108.899 1014.1 108.399 1015.6 108.399H1046.7V254.799H1011.9V163.299L995.4 182.699L982 198.099C976.9 203.999 967.7 203.999 962.6 198.099L932.8 163.299V254.799H898V108.399H898.1Z" fill="#007BEA"/>
<path d="M1165.2 108.399L1148.9 143.199H1102V164.199H1154.5V198.999H1102V219.999H1154.5V254.799H1067.2V108.399H1165.2Z" fill="#007BEA"/>
<path d="M1259.5 193.099C1259.5 186.099 1265.4 180.299 1272.3 180.299H1314C1324.6 180.299 1333 171.699 1332.5 161.099C1332.1 150.999 1323.5 143.299 1313.6 143.299H1278.5L1294.7 108.499H1313.5C1342.8 108.499 1367.7 132.299 1367.5 161.599C1367.5 182.799 1355.1 200.999 1336.9 209.399L1382.3 254.799H1334L1294.3 215.099V254.799H1259.5V193.099Z" fill="#007BEA"/>
<path d="M1390 108.399H1412.1C1419.1 108.399 1424.9 114.099 1424.9 121.199V254.799H1389.9V108.399H1390Z" fill="#007BEA"/>
<path d="M1437.3 184.699C1437.3 142.799 1469.1 108.399 1511.1 108.399C1531.6 108.399 1549.4 116.099 1562.2 129.999L1545.5 146.699C1541.7 150.499 1535.4 151.799 1530.3 147.999C1523.9 145.399 1517.5 142.899 1509.8 142.899C1489.5 142.899 1473 159.399 1473 179.899C1473 200.999 1488.2 220.699 1511.1 220.699C1517.5 220.699 1525.2 217.999 1530.3 215.399C1535.4 211.599 1541.7 212.799 1545.5 216.699L1562.2 233.399C1549.4 247.499 1530.3 254.999 1508.8 254.999C1470.2 254.799 1437.3 222.999 1437.3 184.699Z" fill="#007BEA"/>
<path d="M402.9 141.9L387.1 127.9L336.7 83.3998L267.5 22.2998L235.2 51.1998L231.8 54.1998L227.4 58.0998C224.7 60.4998 222.7 63.3998 221.3 66.5998C220 63.3998 218 60.3998 215.2 57.8998L200.5 44.7998L175 22.3998L171.5 25.4998L110.3 79.5998C93.3998 100.8 88.2998 135.7 107.9 153.1L127.7 171.7L128.1 171.3L210.7 98.3998C210.8 98.3998 210.8 98.2998 210.8 98.2998L215.1 94.4998C217.9 91.9998 219.9 89.0998 221.2 85.8998C222.6 89.0998 224.6 92.1998 227.5 94.6998L231.9 98.5998L247.4 112.3L326.2 181.9L345.4 199.9C365.4 217.5 367.2 247.4 351.1 267.4L402.8 221.7C426.8 200.3 426.8 163.1 402.9 141.9Z" fill="#007BEA"/>
<path d="M335 210.5L315 191.7L232 264.9C231.9 265 231.9 265 231.8 265.1L227.5 268.9C224.7 271.4 222.7 274.3 221.3 277.5C220 274.3 217.9 271.3 215.1 268.8L210.7 264.9L195.6 251.5H195.5L116.7 181.9L97.5 163.9C76.9 145.7 75.5 114.4 93.4 94.5L39.8 141.8C15.9 162.9 15.9 200.2 39.8 221.3L55.6 235.3L108.5 282.1L175.1 340.9L207.3 312.1L210.8 309L215.2 305.1C217.9 302.7 219.9 299.7 221.2 296.6C222.6 299.8 224.6 302.8 227.4 305.3L243.2 319.3L267.6 341L270.5 338.4L333.9 282.4C349.9 260.9 354.2 227.4 335 210.5Z" fill="#007BEA"/>
<path d="M222.7 246.1C225.3 246.1 227.8 245.2 229.8 243.2L297.6 183.7L278.1 166.9H226.6L208.4 185.2H264.4L221.9 221.6L174.7 180.8L222.3 141.4L234.2 151.8H265.7L229 120.1C227.1 118.2 224.5 117.1 221.7 117.1C219 117.1 216.4 118.2 214.5 120L146 180L145.2 180.7L215.5 243C217.4 245.1 220.1 246.1 222.7 246.1Z" fill="#007BEA"/>
</svg>
