<?xml version="1.0" encoding="utf-8"?>
<!-- Generator: Adobe Illustrator 21.0.0, SVG Export Plug-In . SVG Version: 6.00 Build 0)  -->
<svg version="1.1" id="Capa_1" xmlns="http://www.w3.org/2000/svg" xmlns:xlink="http://www.w3.org/1999/xlink" x="0px" y="0px"
	 viewBox="0 0 1140 657" style="enable-background:new 0 0 1140 657;" xml:space="preserve">
<style type="text/css">
	.st0{fill:#001E49;}
	.st1{fill:#FFFFFF;}
</style>
<g>
	<g>
		<path d="M758.6,154l-16.9-14.9l0,0L688,91.6l-73.8-65.2l0,0l0,0l-34.5,30.9l-3.6,3.2l0,0l-4.7,4.2c-2.9,2.6-5.1,5.7-6.5,9
			c-1.4-3.4-3.6-6.6-6.5-9.2l-15.7-13.9l-27.2-24.2l0,0h0l-3.7,3.3l-65.3,57.7c-18.1,22.7-23.5,59.9-2.5,78.4l21.1,19.8l0.4-0.4
			l88.1-77.8c0.1,0,0.1-0.1,0.1-0.2l4.6-4.1c3-2.6,5.1-5.8,6.6-9.2c1.5,3.5,3.6,6.7,6.7,9.3l4.7,4.1l0,0l16.5,14.6l0,0l84.1,74.3
			l20.5,19.2c21.3,18.8,23.3,50.6,6.1,72l55.2-48.7C784.1,216.3,784.1,176.5,758.6,154z"/>
		<path d="M686.3,227.1L664.9,207l-88.5,78.1c-0.1,0.1-0.1,0.1-0.2,0.2l-4.6,4c-3,2.6-5.2,5.8-6.6,9.1c-1.4-3.4-3.6-6.6-6.6-9.3
			l-4.7-4.1c0,0,0,0,0,0l-16.2-14.3l-0.1,0l-84.1-74.3l-20.5-19.2c-22-19.4-23.5-52.8-4.4-74l-57.2,50.5
			c-25.5,22.5-25.5,62.3,0,84.8l16.9,14.9l0,0l56.5,49.9l71,62.7l0,0l0,0l34.4-30.8l3.7-3.3c0,0,0,0,0,0l4.7-4.2
			c2.9-2.6,5-5.7,6.4-9.1c1.4,3.4,3.6,6.6,6.6,9.3l16.8,14.9l26.1,23.2l0,0l3.1-2.7l67.6-59.7C702.1,280.8,706.7,245.1,686.3,227.1z
			"/>
		<path d="M566.5,265.1c2.7,0,5.5-1,7.6-3l72.3-63.5l-20.8-17.9h-55l-19.4,19.5h59.8L565.5,239l-50.3-43.5l50.7-42.1l12.7,11.1h33.6
			l-39.2-33.8c-2.1-2.1-4.8-3.2-7.8-3.2c-2.9,0-5.7,1.1-7.7,3.1l-73.1,64l-0.9,0.8l75,66.5C560.8,264,563.7,265.1,566.5,265.1z"/>
	</g>
	<g>
		<g>
			<polygon points="820.5,479.2 820.5,479.2 719.1,479.2 702.9,514.4 768.2,514.4 714.8,627.6 752.7,627.6 805.7,514.4 822.1,479.2 
							"/>
			<path d="M73.4,623.7c-1.1-0.4-2.4-0.7-3.5-1.3c-1.1-0.4-2.2-0.9-3.3-1.3l-2.4-1.3l-4.6-2.4c-0.7-0.6-1.7-0.9-2.4-1.5
				c-1.5-0.9-3-2-4.3-3c-3-2.2-5.6-4.6-8.2-7c-13.4-13.5-21.7-32.1-21.7-52.5c0-20.6,8.3-39.1,21.7-52.5c2.6-2.6,5.2-4.8,8.2-7
				c1.3-1.1,2.8-2,4.3-3c3.2-2,6.3-3.7,9.5-5.2c1.1-0.6,2.2-0.9,3.3-1.5l3.5-1.1c7.4-2.6,15.4-3.9,23.7-3.9c8.3,0,16.3,1.3,23.7,3.9
				l3.5,1.1c1.1,0.6,2.2,0.9,3.3,1.5c3.3,1.5,6.5,3.2,9.5,5.2c1.5,0.9,3,1.9,4.5,3c2.8,2.2,5.6,4.5,8,7l-24.9,24.9
				c-1.9-1.7-3.7-3.3-5.7-4.6h-0.2c-0.4-0.4-0.9-0.7-1.5-1.1l-1.1-0.6l-1.5-0.9c-1.1-0.6-2-0.9-3.2-1.3l-1.5-0.6
				c-0.4-0.2-0.7-0.4-1.1-0.4c-0.4-0.2-0.6-0.2-0.7-0.4c-0.4,0-0.9-0.2-1.3-0.4c-3.2-0.7-6.5-1.1-9.8-1.1c-3.3,0-6.7,0.4-9.6,1.1
				c-0.6,0.2-0.9,0.4-1.5,0.4l-0.6,0.4c-0.4,0-0.9,0.2-1.3,0.4l-1.5,0.6c-1.1,0.4-2,0.7-3,1.3l-1.3,0.6l-0.6,0.6l-1.1,0.6
				c-0.4,0.2-0.9,0.6-1.3,0.9l-1.7,1.1c0,0-0.2,0-0.2,0.2h-0.2v0.2c-0.7,0.4-1.3,0.9-1.9,1.3v0.2c-8.2,7-13.4,17.6-13.4,29.3
				s5.2,22.1,13.4,29.3c0.6,0.4,1.1,0.9,1.9,1.5l0.4,0.4l1.7,1.1c1.3,0.9,2.8,1.7,4.3,2.4c0.9,0.6,1.9,1.1,3,1.5
				c1.5,0.6,3.2,1.1,4.8,1.5c3,0.7,6.3,1.3,9.6,1.3c3.3,0,6.7-0.6,9.8-1.3c1.5-0.4,3.2-0.9,4.6-1.5c1.1-0.4,2-0.9,3.2-1.5
				c1.5-0.7,2.8-1.5,4.1-2.4h0.2l3-2.2l2.8-2.6v-27.3H147c7.2,0,13,5.7,13,12.8v14.1c0,9.5-3.5,18.5-10.2,25.2l-0.2,0.2
				c-2.4,2.4-5.2,4.8-8,7l-4.5,3l-2.2,1.3c-1.5,0.9-3.2,1.9-4.8,2.6c-0.7,0.6-1.7,0.9-2.4,1.3l-3,1.1v0.2h-0.4
				c-1.1,0.6-2.2,0.9-3.5,1.3c-7.4,2.6-15.4,3.9-23.7,3.9C88.8,627.6,80.8,626.3,73.4,623.7z"/>
			<path d="M172.4,479.2h75.5c7,0,13,5.7,13,13v22.3h-53.2v21.3h53.2V571h-53.2v21.3h53.2v35.2h-88.5V479.2z"/>
			<path d="M421.7,553.4c0,41-33.2,74.2-74.2,74.2c-41,0-74.2-33.2-74.2-74.2s33.2-74.2,74.2-74.2
				C388.5,479.2,421.7,512.4,421.7,553.4z M386.3,553.4c0-21.3-17.4-38.8-38.8-38.8c-21.5,0-38.8,17.4-38.8,38.8
				c0,21.5,17.3,38.8,38.8,38.8C368.9,592.1,386.3,574.9,386.3,553.4z"/>
			<path d="M434.2,479.2h31.7c1.3,0,2.6,0.6,3.5,1.7l40.1,46.6l40.1-46.6c0.9-1.1,2.2-1.7,3.7-1.7h31.5v148.4h-35.2v-92.7
				l-16.7,19.7l-13.5,15.6c-5.2,5.9-14.5,5.9-19.7,0l-30.2-35.2v92.7h-35.2V479.2z"/>
			<path d="M704.9,479.2l-16.5,35.2h-47.5v21.3h53.2V571h-53.2v21.3h53.2v35.2h-88.5V479.2H704.9z"/>
			<g>
				<path d="M800.5,565.1c0-7.1,5.9-13,13-13h42.3c10.8,0,19.3-8.7,18.7-19.5c-0.4-10.2-9.1-18-19.1-18h-35.6l16.4-35.2h19
					c29.7,0,54.9,24.1,54.7,53.8c0,21.5-12.6,39.9-31,48.4l46,46h-49l-40.3-40.3v40.3h-35.2V565.1z"/>
				<path d="M932.7,479.2h22.4c7,0,13,5.7,13,13v135.4h-35.4V479.2z"/>
				<path d="M980.6,556.5c0-42.5,32.3-77.4,74.8-77.4c20.8,0,38.8,7.8,51.8,21.9l-16.9,16.9c-3.9,3.9-10.2,5.2-15.4,1.3
					c-6.5-2.6-13-5.2-20.8-5.2c-20.6,0-37.3,16.7-37.3,37.5c0,21.3,15.4,41.4,38.6,41.4c6.5,0,14.3-2.8,19.5-5.4
					c5.2-3.9,11.5-2.6,15.4,1.3l16.9,16.9c-13,14.3-32.3,21.9-54.2,21.9C1014,627.6,980.6,595.3,980.6,556.5z"/>
			</g>
		</g>
	</g>
</g>
</svg>
