<svg width="256" height="58" viewBox="0 0 256 58" fill="none" xmlns="http://www.w3.org/2000/svg">
<path d="M206.756 17.2717H190.594L188.008 22.8474H198.416L189.899 40.7281H195.944L204.396 22.8474L207.014 17.2717H206.756Z" fill="#007BEA"/>
<path d="M87.6122 40.1194C87.4345 40.0553 87.2244 40.0072 87.0466 39.9111C86.8688 39.847 86.691 39.7669 86.5133 39.7028L86.1254 39.4945L85.3819 39.11C85.2688 39.0299 85.1234 38.9658 84.9941 38.8697C84.7516 38.7255 84.5254 38.5492 84.3153 38.405C83.8466 38.0525 83.4264 37.668 83.0062 37.2835C80.8729 35.1365 79.5476 32.2045 79.5476 28.984C79.5476 25.7315 80.8729 22.7995 83.0062 20.6846C83.4264 20.268 83.8304 19.9155 84.3153 19.563C84.5254 19.3868 84.7516 19.2426 84.9941 19.0984C85.4951 18.778 85.9961 18.5056 86.4971 18.2813C86.6749 18.2012 86.8527 18.1371 87.0304 18.0409L87.5961 17.8647C88.7759 17.4481 90.0527 17.2559 91.3779 17.2559C92.7032 17.2559 93.9799 17.4641 95.1597 17.8647L95.7254 18.0409C95.9032 18.1371 96.0809 18.1851 96.2587 18.2813C96.792 18.5216 97.2931 18.778 97.7617 19.0984C98.0042 19.2426 98.2304 19.3868 98.4729 19.563C98.9092 19.9155 99.3617 20.268 99.7496 20.6846L95.79 24.61C95.4991 24.3536 95.192 24.0813 94.8688 23.873H94.8365C94.7718 23.8089 94.691 23.7608 94.5941 23.6967L94.4163 23.6166L94.1739 23.4724C93.9961 23.3923 93.8506 23.3282 93.6729 23.2641L93.4304 23.184C93.3658 23.152 93.3173 23.1199 93.2527 23.1199C93.188 23.0879 93.1718 23.0879 93.1395 23.0559C93.0749 23.0559 92.9941 23.0238 92.9294 22.9918C92.4284 22.8796 91.8951 22.8155 91.3617 22.8155C90.8284 22.8155 90.2951 22.8796 89.8264 22.9918C89.7456 23.0238 89.6809 23.0559 89.584 23.0559L89.5032 23.1199C89.4385 23.1199 89.3577 23.152 89.2931 23.184L89.0506 23.2641C88.8729 23.3282 88.7274 23.3763 88.5819 23.4724L88.3718 23.5686L88.291 23.6487L88.1133 23.7448C88.0486 23.7768 87.9678 23.8249 87.9032 23.889L87.6446 24.0652C87.6446 24.0652 87.6122 24.0652 87.6122 24.0973H87.5799V24.1293C87.4668 24.1934 87.3698 24.2735 87.289 24.3376V24.3697C85.9799 25.4912 85.1557 27.1575 85.1557 29.0001C85.1557 30.8426 85.9799 32.4929 87.289 33.6304C87.3698 33.6945 87.4668 33.7746 87.5799 33.8708L87.6446 33.9349L87.9032 34.1111C88.1133 34.2553 88.3395 34.3675 88.5819 34.4956C88.7274 34.5757 88.8729 34.6719 89.0506 34.736C89.2931 34.8321 89.5516 34.9122 89.8264 34.9763C90.2951 35.0884 90.8284 35.1846 91.3617 35.1846C91.8951 35.1846 92.4284 35.1045 92.9294 34.9763C93.1718 34.9122 93.4304 34.8321 93.6729 34.736C93.8506 34.6719 93.9961 34.5918 94.1739 34.4956C94.4163 34.3835 94.6102 34.2553 94.8203 34.1111H94.8527L95.3213 33.7586L95.7577 33.342V29.0321H99.3133C100.461 29.0321 101.382 29.9454 101.382 31.0509V33.2779C101.382 34.768 100.816 36.21 99.7496 37.2675L99.7173 37.2995C99.3294 37.684 98.8931 38.0686 98.4405 38.421L97.7294 38.8857L97.3739 39.094C97.1314 39.2382 96.8729 39.3824 96.5981 39.5105C96.485 39.6067 96.3395 39.6547 96.2102 39.7188L95.7415 39.8951V39.9271H95.6769C95.4991 40.0072 95.3213 40.0713 95.1112 40.1354C93.9314 40.552 92.6547 40.7442 91.3294 40.7442C90.0527 40.7282 88.792 40.5199 87.6122 40.1194Z" fill="white"/>
<path d="M103.402 17.2717H115.443C116.574 17.2717 117.511 18.185 117.511 19.3226V22.8474H109.026V26.2121H117.511V31.7877H109.026V35.1524H117.511V40.7281H103.402V17.2717Z" fill="white"/>
<path d="M143.16 28.9999C143.16 35.4889 137.859 40.7281 131.329 40.7281C124.784 40.7281 119.499 35.4728 119.499 28.9999C119.499 22.527 124.8 17.2717 131.329 17.2717C137.875 17.2717 143.16 22.511 143.16 28.9999ZM137.519 28.9999C137.519 25.6353 134.739 22.8634 131.329 22.8634C127.903 22.8634 125.139 25.6192 125.139 28.9999C125.139 32.3966 127.887 35.1364 131.329 35.1364C134.723 35.1364 137.519 32.3966 137.519 28.9999Z" fill="white"/>
<path d="M145.148 17.2717H150.206C150.416 17.2717 150.626 17.3518 150.772 17.5281L157.156 24.8822L163.539 17.5281C163.685 17.3518 163.895 17.2717 164.137 17.2717H169.164V40.7281H163.539V26.0679L160.873 29.1761L158.707 31.6435C157.883 32.5889 156.396 32.5889 155.572 31.6435L150.756 26.0679V40.7281H145.131V17.2717H145.148Z" fill="white"/>
<path d="M188.315 17.2717L185.681 22.8474H178.101V26.2121H186.586V31.7877H178.101V35.1524H186.586V40.7281H172.477V17.2717H188.315Z" fill="white"/>
<path d="M203.556 30.8423C203.556 29.7207 204.509 28.7915 205.624 28.7915H212.364C214.077 28.7915 215.434 27.4136 215.354 25.7152C215.289 24.097 213.899 22.8633 212.299 22.8633H206.626L209.245 17.2876H212.283C217.018 17.2876 221.043 21.1009 221.01 25.7953C221.01 29.192 219.006 32.108 216.065 33.4539L223.402 40.7279H215.596L209.18 34.3672V40.7279H203.556V30.8423Z" fill="white"/>
<path d="M224.647 17.2717H228.218C229.35 17.2717 230.287 18.185 230.287 19.3226V40.7281H224.63V17.2717H224.647Z" fill="white"/>
<path d="M232.291 29.4966C232.291 22.7833 237.43 17.2717 244.218 17.2717C247.531 17.2717 250.408 18.5054 252.477 20.7325L249.778 23.4082C249.164 24.017 248.146 24.2253 247.321 23.6165C246.287 23.1999 245.253 22.7994 244.008 22.7994C240.727 22.7994 238.061 25.443 238.061 28.7275C238.061 32.1082 240.517 35.2645 244.218 35.2645C245.253 35.2645 246.497 34.832 247.321 34.4154C248.146 33.8065 249.164 33.9988 249.778 34.6237L252.477 37.2994C250.408 39.5585 247.321 40.7601 243.847 40.7601C237.608 40.7281 232.291 35.6331 232.291 29.4966Z" fill="white"/>
<path d="M65.1152 22.6392L62.5617 20.3961L54.4163 13.2663L43.2324 3.47681L38.0122 8.10719L37.4627 8.58785L36.7516 9.21272C36.3152 9.59725 35.992 10.0619 35.7657 10.5746C35.5556 10.0619 35.2324 9.58122 34.7799 9.18067L32.4041 7.08178L28.2829 3.49283L27.7173 3.98951L17.8264 12.6575C15.095 16.0542 14.2708 21.6459 17.4385 24.4337L20.6385 27.4138L20.7031 27.3497L34.0526 15.6696C34.0688 15.6696 34.0688 15.6536 34.0688 15.6536L34.7637 15.0448C35.2163 14.6442 35.5395 14.1796 35.7496 13.6669C35.9758 14.1796 36.2991 14.6763 36.7678 15.0768L37.4789 15.7017L39.9839 17.8967L52.7193 29.0481L55.8223 31.932C59.0546 34.7519 59.3455 39.5425 56.7435 42.747L65.0991 35.4249C68.9779 31.9961 68.9779 26.0359 65.1152 22.6392Z" fill="white"/>
<path d="M54.1415 33.6306L50.9091 30.6184L37.495 42.3466C37.4788 42.3626 37.4788 42.3626 37.4627 42.3786L36.7677 42.9875C36.3152 43.388 35.992 43.8527 35.7657 44.3654C35.5556 43.8527 35.2162 43.372 34.7637 42.9714L34.0526 42.3466L31.6122 40.1996H31.596L18.8607 29.0482L15.7576 26.1643C12.4283 23.2482 12.2021 18.2333 15.095 15.0449L6.43237 22.6234C2.56974 26.004 2.56974 31.9803 6.43237 35.3609L8.98591 37.604L17.5354 45.1024L28.299 54.5234L33.5031 49.909L34.0687 49.4123L34.7798 48.7875C35.2162 48.4029 35.5394 47.9223 35.7495 47.4256C35.9758 47.9383 36.299 48.419 36.7516 48.8195L39.3051 51.0626L43.2485 54.5394L43.7172 54.1228L53.9637 45.1504C56.5495 41.7057 57.2445 36.3383 54.1415 33.6306Z" fill="white"/>
<path d="M35.992 39.3343C36.4122 39.3343 36.8163 39.1901 37.1395 38.8696L48.0971 29.3365L44.9456 26.6448H36.6224L33.6809 29.5768H42.7314L35.8628 35.4089L28.2345 28.8718L35.9274 22.5591L37.8506 24.2254H42.9415L37.0102 19.1464C36.7032 18.842 36.283 18.6658 35.8304 18.6658C35.3941 18.6658 34.9739 18.842 34.6668 19.1304L23.5961 28.7437L23.4668 28.8558L34.8284 38.8376C35.1355 39.1741 35.5718 39.3343 35.992 39.3343Z" fill="white"/>
</svg>
