<?xml version="1.0" encoding="utf-8"?>
<!-- Generator: Adobe Illustrator 21.0.0, SVG Export Plug-In . SVG Version: 6.00 Build 0)  -->
<svg version="1.1" id="Capa_1" xmlns="http://www.w3.org/2000/svg" xmlns:xlink="http://www.w3.org/1999/xlink" x="0px" y="0px"
	 viewBox="0 0 1584 362" style="enable-background:new 0 0 1584 362;" xml:space="preserve">
<style type="text/css">
	.st0{fill:#001E49;}
	.st1{fill:#FFFFFF;}
</style>
<g>
	<g>
		<g>
			<polygon points="1279.3,107.8 1279.3,107.8 1179.3,107.8 1163.3,142.6 1227.7,142.6 1175,254.2 1212.4,254.2 1264.7,142.6 
				1280.9,107.8 			"/>
			<path d="M542.1,250.4c-1.1-0.4-2.4-0.7-3.5-1.3c-1.1-0.4-2.2-0.9-3.3-1.3l-2.4-1.3l-4.6-2.4c-0.7-0.5-1.6-0.9-2.4-1.5
				c-1.5-0.9-2.9-2-4.2-2.9c-2.9-2.2-5.5-4.6-8.1-7c-13.2-13.4-21.4-31.7-21.4-51.8c0-20.3,8.2-38.6,21.4-51.8
				c2.6-2.6,5.1-4.8,8.1-7c1.3-1.1,2.7-2,4.2-2.9c3.1-2,6.2-3.7,9.3-5.1c1.1-0.5,2.2-0.9,3.3-1.5l3.5-1.1c7.3-2.6,15.2-3.8,23.4-3.8
				c8.2,0,16.1,1.3,23.4,3.8l3.5,1.1c1.1,0.6,2.2,0.9,3.3,1.5c3.3,1.5,6.4,3.1,9.3,5.1c1.5,0.9,2.9,1.8,4.4,2.9
				c2.7,2.2,5.5,4.4,7.9,7l-24.5,24.5c-1.8-1.6-3.7-3.3-5.7-4.6h-0.2c-0.4-0.4-0.9-0.7-1.5-1.1l-1.1-0.5l-1.5-0.9
				c-1.1-0.5-2-0.9-3.1-1.3l-1.5-0.5c-0.4-0.2-0.7-0.4-1.1-0.4c-0.4-0.2-0.5-0.2-0.7-0.4c-0.4,0-0.9-0.2-1.3-0.4
				c-3.1-0.7-6.4-1.1-9.7-1.1c-3.3,0-6.6,0.4-9.5,1.1c-0.5,0.2-0.9,0.4-1.5,0.4l-0.5,0.4c-0.4,0-0.9,0.2-1.3,0.4l-1.5,0.5
				c-1.1,0.4-2,0.7-2.9,1.3l-1.3,0.6l-0.5,0.5l-1.1,0.6c-0.4,0.2-0.9,0.5-1.3,0.9l-1.6,1.1c0,0-0.2,0-0.2,0.2h-0.2v0.2
				c-0.7,0.4-1.3,0.9-1.8,1.3v0.2c-8.1,7-13.2,17.4-13.2,28.9c0,11.5,5.1,21.8,13.2,28.9c0.5,0.4,1.1,0.9,1.8,1.5l0.4,0.4l1.6,1.1
				c1.3,0.9,2.7,1.6,4.2,2.4c0.9,0.5,1.8,1.1,2.9,1.5c1.5,0.6,3.1,1.1,4.8,1.5c2.9,0.7,6.2,1.3,9.5,1.3c3.3,0,6.6-0.5,9.7-1.3
				c1.5-0.4,3.1-0.9,4.6-1.5c1.1-0.4,2-0.9,3.1-1.5c1.5-0.7,2.7-1.5,4-2.4h0.2l2.9-2.2l2.7-2.6v-26.9h22c7.1,0,12.8,5.7,12.8,12.6
				v13.9c0,9.3-3.5,18.3-10.1,24.9l-0.2,0.2c-2.4,2.4-5.1,4.8-7.9,7l-4.4,2.9l-2.2,1.3c-1.5,0.9-3.1,1.8-4.8,2.6
				c-0.7,0.6-1.6,0.9-2.4,1.3l-2.9,1.1v0.2h-0.4c-1.1,0.5-2.2,0.9-3.5,1.3c-7.3,2.6-15.2,3.8-23.4,3.8
				C557.2,254.2,549.4,252.9,542.1,250.4z"/>
			<path d="M639.8,107.8h74.5c7,0,12.8,5.7,12.8,12.8v22h-52.5v21h52.5v34.8h-52.5v21h52.5v34.8h-87.3V107.8z"/>
			<path d="M885.8,181c0,40.5-32.8,73.2-73.2,73.2c-40.5,0-73.2-32.8-73.2-73.2s32.8-73.2,73.2-73.2
				C853.1,107.8,885.8,140.5,885.8,181z M850.9,181c0-21-17.2-38.3-38.3-38.3c-21.2,0-38.3,17.2-38.3,38.3c0,21.2,17,38.3,38.3,38.3
				C833.6,219.3,850.9,202.2,850.9,181z"/>
			<path d="M898.1,107.8h31.3c1.3,0,2.6,0.5,3.5,1.6l39.5,45.9l39.5-45.9c0.9-1.1,2.2-1.6,3.7-1.6h31.1v146.4h-34.8v-91.5
				l-16.5,19.4l-13.4,15.4c-5.1,5.9-14.3,5.9-19.4,0l-29.8-34.8v91.5h-34.8V107.8z"/>
			<path d="M1165.2,107.8l-16.3,34.8H1102v21h52.5v34.8H1102v21h52.5v34.8h-87.3V107.8H1165.2z"/>
			<g>
				<path d="M1259.5,192.5c0-7,5.9-12.8,12.8-12.8h41.7c10.6,0,19-8.6,18.5-19.2c-0.4-10.1-9-17.8-18.9-17.8h-35.1l16.2-34.8h18.8
					c29.3,0,54.2,23.8,54,53.1c0,21.2-12.4,39.4-30.6,47.8l45.4,45.4H1334l-39.7-39.7v39.7h-34.8V192.5z"/>
				<path d="M1390,107.8h22.1c7,0,12.8,5.7,12.8,12.8v133.6h-35V107.8z"/>
				<path d="M1437.3,184.1c0-41.9,31.8-76.3,73.8-76.3c20.5,0,38.3,7.7,51.1,21.6l-16.7,16.7c-3.8,3.8-10.1,5.1-15.2,1.3
					c-6.4-2.6-12.8-5.1-20.5-5.1c-20.3,0-36.8,16.5-36.8,37c0,21.1,15.2,40.8,38.1,40.8c6.4,0,14.1-2.7,19.2-5.3
					c5.1-3.8,11.4-2.6,15.2,1.3l16.7,16.7c-12.8,14.1-31.9,21.6-53.4,21.6C1470.2,254.2,1437.3,222.4,1437.3,184.1z"/>
			</g>
		</g>
	</g>
	<g>
		<path d="M402.9,141.3l-15.8-14l0,0l-50.4-44.5l-69.2-61.1l0,0l0,0l-32.3,28.9l-3.4,3c0,0,0,0,0,0l-4.4,3.9
			c-2.7,2.4-4.7,5.3-6.1,8.5c-1.3-3.2-3.3-6.2-6.1-8.7l-14.7-13.1L175,21.8l0,0h0l-3.5,3.1l-61.2,54.1c-16.9,21.2-22,56.1-2.4,73.5
			l19.8,18.6l0.4-0.4l82.6-72.9c0.1,0,0.1-0.1,0.1-0.1l4.3-3.8c2.8-2.5,4.8-5.4,6.1-8.6c1.4,3.2,3.4,6.3,6.3,8.8l4.4,3.9
			c0,0,0,0,0,0l15.5,13.7l0,0l78.8,69.6l19.2,18c20,17.6,21.8,47.5,5.7,67.5l51.7-45.7C426.8,199.7,426.8,162.5,402.9,141.3z"/>
		<path d="M335,209.9L315,191.1L232,264.3c-0.1,0.1-0.1,0.1-0.2,0.2l-4.3,3.8c-2.8,2.5-4.8,5.4-6.2,8.6c-1.3-3.2-3.4-6.2-6.2-8.7
			l-4.4-3.9c0,0,0,0,0,0l-15.1-13.4l-0.1,0l-78.8-69.6l-19.2-18c-20.6-18.2-22-49.5-4.1-69.4l-53.6,47.3
			c-23.9,21.1-23.9,58.4,0,79.5l15.8,14l0,0l52.9,46.8l66.6,58.8l0,0l0,0l32.2-28.8l3.5-3.1c0,0,0,0,0,0l4.4-3.9
			c2.7-2.4,4.7-5.4,6-8.5c1.4,3.2,3.4,6.2,6.2,8.7l15.8,14l24.4,21.7l0,0l2.9-2.6l63.4-56C349.9,260.3,354.2,226.8,335,209.9z"/>
		<path d="M222.7,245.5c2.6,0,5.1-0.9,7.1-2.9l67.8-59.5l-19.5-16.8h-51.5l-18.2,18.3h56l-42.5,36.4l-47.2-40.8l47.6-39.4l11.9,10.4
			h31.5l-36.7-31.7c-1.9-1.9-4.5-3-7.3-3c-2.7,0-5.3,1.1-7.2,2.9l-68.5,60l-0.8,0.7l70.3,62.3C217.4,244.5,220.1,245.5,222.7,245.5z
			"/>
	</g>
</g>
</svg>
